<svg width="256" height="256" version="1.1" viewBox="0 0 67.733 67.733" xmlns="http://www.w3.org/2000/svg">
 <g stroke-width="0">
  <path d="m65.945 41.357c0 3.5058-5.6407 5.8989-12.599 5.8989s-12.599-4.1862-12.599-5.8989 5.6407-5.0227 12.599-5.0227 12.599 1.517 12.599 5.0227z" fill="#fff"/>
  <path d="m53.342 36.33c-1.7229 0-3.3644 0.2035-4.8602 0.53485a5.9585 5.9585 0 0 0-1.5808 4.0421 5.9585 5.9585 0 0 0 5.9583 5.9588 5.9585 5.9585 0 0 0 5.9588-5.9588 5.9585 5.9585 0 0 0-1.9771-4.4323c-1.112-0.0951-2.2835-0.14469-3.499-0.14469z"/>
  <path d="m1.7883 41.357c0 3.5058 5.6407 5.8989 12.599 5.8989 6.9582 0 12.599-4.1862 12.599-5.8989s-5.6407-5.0227-12.599-5.0227c-6.9582 0-12.599 1.517-12.599 5.0227z" fill="#fff"/>
  <path d="m14.391 36.33c1.7229 0 3.3644 0.2035 4.8602 0.53485a5.9585 5.9585 0 0 1 1.5808 4.0421 5.9585 5.9585 0 0 1-5.9583 5.9588 5.9585 5.9585 0 0 1-5.9588-5.9588 5.9585 5.9585 0 0 1 1.9771-4.4323c1.112-0.0951 2.2835-0.14469 3.499-0.14469z"/>
 </g>
</svg>
