<svg width="256" height="256" version="1.1" viewBox="0 0 67.733 67.733" xmlns="http://www.w3.org/2000/svg">
 <g shape-rendering="auto">
  <path d="m1.7883 41.357c0 3.5058 5.6407 5.8989 12.599 5.8989 6.9582 0 12.599-4.1862 12.599-5.8989s-5.6407-5.0227-12.599-5.0227c-6.9582 0-12.599 1.517-12.599 5.0227z" color="#000000" color-rendering="auto" dominant-baseline="auto" fill="#fff" image-rendering="auto" solid-color="#000000" stop-color="#000000" style="font-feature-settings:normal;font-variant-alternates:normal;font-variant-caps:normal;font-variant-east-asian:normal;font-variant-ligatures:normal;font-variant-numeric:normal;font-variant-position:normal;font-variation-settings:normal;inline-size:0;isolation:auto;mix-blend-mode:normal;shape-margin:0;shape-padding:0;text-decoration-color:#000000;text-decoration-line:none;text-decoration-style:solid;text-indent:0;text-orientation:mixed;text-transform:none;white-space:normal"/>
  <g>
   <path d="m14.391 36.33c1.7229 0 3.3644 0.2035 4.8602 0.53485 1.0163 1.1007 1.5807 2.5439 1.5808 4.0421 1.3e-4 3.2908-2.6675 5.9586-5.9583 5.9588-3.291 1.28e-4 -5.9589-2.6678-5.9588-5.9588 2.441e-4 -1.691 0.719-3.3023 1.9771-4.4323 1.112-0.0951 2.2835-0.14469 3.499-0.14469z" color="#000000" color-rendering="auto" dominant-baseline="auto" image-rendering="auto" solid-color="#000000" stop-color="#000000" style="font-feature-settings:normal;font-variant-alternates:normal;font-variant-caps:normal;font-variant-east-asian:normal;font-variant-ligatures:normal;font-variant-numeric:normal;font-variant-position:normal;font-variation-settings:normal;inline-size:0;isolation:auto;mix-blend-mode:normal;shape-margin:0;shape-padding:0;text-decoration-color:#000000;text-decoration-line:none;text-decoration-style:solid;text-indent:0;text-orientation:mixed;text-transform:none;white-space:normal"/>
   <path transform="rotate(5.6993)" d="m19.732 27.056c0.33726 0 0.60877 0.27151 0.60877 0.60877v6.0926c0 0.33726-0.27151 0.60877-0.60877 0.60877-0.33726 0-0.60877-0.27151-0.60877-0.60877v-6.0926c0-0.33726 0.27151-0.60877 0.60877-0.60877z" color="#000000" color-rendering="auto" dominant-baseline="auto" image-rendering="auto" solid-color="#000000" stop-color="#000000" style="font-feature-settings:normal;font-variant-alternates:normal;font-variant-caps:normal;font-variant-east-asian:normal;font-variant-ligatures:normal;font-variant-numeric:normal;font-variant-position:normal;font-variation-settings:normal;inline-size:0;isolation:auto;mix-blend-mode:normal;shape-margin:0;shape-padding:0;text-decoration-color:#000000;text-decoration-line:none;text-decoration-style:solid;text-indent:0;text-orientation:mixed;text-transform:none;white-space:normal"/>
   <path transform="rotate(-7.8908)" d="m4.0032 30.202c0.33726 0 0.60877 0.27151 0.60877 0.60877v6.0926c0 0.33726-0.27151 0.60877-0.60877 0.60877s-0.60877-0.27151-0.60877-0.60877v-6.0926c0-0.33726 0.27151-0.60877 0.60877-0.60877z" color="#000000" color-rendering="auto" dominant-baseline="auto" image-rendering="auto" solid-color="#000000" stop-color="#000000" style="font-feature-settings:normal;font-variant-alternates:normal;font-variant-caps:normal;font-variant-east-asian:normal;font-variant-ligatures:normal;font-variant-numeric:normal;font-variant-position:normal;font-variation-settings:normal;inline-size:0;isolation:auto;mix-blend-mode:normal;shape-margin:0;shape-padding:0;text-decoration-color:#000000;text-decoration-line:none;text-decoration-style:solid;text-indent:0;text-orientation:mixed;text-transform:none;white-space:normal"/>
   <path transform="rotate(-1.8571)" d="m11.477 29.108c0.33726 0 0.60877 0.27151 0.60877 0.60877v6.0926c0 0.33726-0.27151 0.60877-0.60877 0.60877s-0.60877-0.27151-0.60877-0.60877v-6.0926c0-0.33726 0.27151-0.60877 0.60877-0.60877z" color="#000000" color-rendering="auto" dominant-baseline="auto" image-rendering="auto" solid-color="#000000" stop-color="#000000" style="font-feature-settings:normal;font-variant-alternates:normal;font-variant-caps:normal;font-variant-east-asian:normal;font-variant-ligatures:normal;font-variant-numeric:normal;font-variant-position:normal;font-variation-settings:normal;inline-size:0;isolation:auto;mix-blend-mode:normal;shape-margin:0;shape-padding:0;text-decoration-color:#000000;text-decoration-line:none;text-decoration-style:solid;text-indent:0;text-orientation:mixed;text-transform:none;white-space:normal"/>
   <path transform="rotate(13.261)" d="m27.729 23.963c0.33726 0 0.60877 0.27151 0.60877 0.60877v6.0926c0 0.33726-0.27151 0.60877-0.60877 0.60877-0.33726 0-0.60877-0.27151-0.60877-0.60877v-6.0926c0-0.33726 0.27151-0.60877 0.60877-0.60877z" color="#000000" color-rendering="auto" dominant-baseline="auto" image-rendering="auto" solid-color="#000000" stop-color="#000000" style="font-feature-settings:normal;font-variant-alternates:normal;font-variant-caps:normal;font-variant-east-asian:normal;font-variant-ligatures:normal;font-variant-numeric:normal;font-variant-position:normal;font-variation-settings:normal;inline-size:0;isolation:auto;mix-blend-mode:normal;shape-margin:0;shape-padding:0;text-decoration-color:#000000;text-decoration-line:none;text-decoration-style:solid;text-indent:0;text-orientation:mixed;text-transform:none;white-space:normal"/>
   <path transform="rotate(22.23)" d="m35.537 19.215c0.33726 0 0.60877 0.27151 0.60877 0.60877v6.0926c0 0.33726-0.27151 0.60877-0.60877 0.60877s-0.60877-0.27151-0.60877-0.60877v-6.0926c0-0.33726 0.27151-0.60877 0.60877-0.60877z" color="#000000" color-rendering="auto" dominant-baseline="auto" image-rendering="auto" solid-color="#000000" stop-color="#000000" style="font-feature-settings:normal;font-variant-alternates:normal;font-variant-caps:normal;font-variant-east-asian:normal;font-variant-ligatures:normal;font-variant-numeric:normal;font-variant-position:normal;font-variation-settings:normal;inline-size:0;isolation:auto;mix-blend-mode:normal;shape-margin:0;shape-padding:0;text-decoration-color:#000000;text-decoration-line:none;text-decoration-style:solid;text-indent:0;text-orientation:mixed;text-transform:none;white-space:normal"/>
   <path transform="rotate(38.485)" d="m44.681 8.2985c0.33726 0 0.60877 0.27151 0.60877 0.60877v6.0926c0 0.33726-0.27151 0.60877-0.60877 0.60877s-0.60877-0.27151-0.60877-0.60877v-6.0926c0-0.33726 0.27151-0.60877 0.60877-0.60877z" color="#000000" color-rendering="auto" dominant-baseline="auto" image-rendering="auto" solid-color="#000000" stop-color="#000000" style="font-feature-settings:normal;font-variant-alternates:normal;font-variant-caps:normal;font-variant-east-asian:normal;font-variant-ligatures:normal;font-variant-numeric:normal;font-variant-position:normal;font-variation-settings:normal;inline-size:0;isolation:auto;mix-blend-mode:normal;shape-margin:0;shape-padding:0;text-decoration-color:#000000;text-decoration-line:none;text-decoration-style:solid;text-indent:0;text-orientation:mixed;text-transform:none;white-space:normal"/>
   <path transform="rotate(-23.073)" d="m-9.1374 29.459c0.33726 0 0.60877 0.27151 0.60877 0.60877v6.0926c0 0.33726-0.27151 0.60877-0.60877 0.60877s-0.60877-0.27151-0.60877-0.60877v-6.0926c0-0.33726 0.27151-0.60877 0.60877-0.60877z" color="#000000" color-rendering="auto" dominant-baseline="auto" image-rendering="auto" solid-color="#000000" stop-color="#000000" style="font-feature-settings:normal;font-variant-alternates:normal;font-variant-caps:normal;font-variant-east-asian:normal;font-variant-ligatures:normal;font-variant-numeric:normal;font-variant-position:normal;font-variation-settings:normal;inline-size:0;isolation:auto;mix-blend-mode:normal;shape-margin:0;shape-padding:0;text-decoration-color:#000000;text-decoration-line:none;text-decoration-style:solid;text-indent:0;text-orientation:mixed;text-transform:none;white-space:normal"/>
   <path transform="rotate(-40.742)" d="m-23.176 24.94c0.33726 0 0.60877 0.27151 0.60877 0.60877v6.0926c0 0.33726-0.27151 0.60877-0.60877 0.60877-0.33726 0-0.60877-0.27151-0.60877-0.60877v-6.0926c0-0.33726 0.27151-0.60877 0.60877-0.60877z" color="#000000" color-rendering="auto" dominant-baseline="auto" image-rendering="auto" solid-color="#000000" stop-color="#000000" style="font-feature-settings:normal;font-variant-alternates:normal;font-variant-caps:normal;font-variant-east-asian:normal;font-variant-ligatures:normal;font-variant-numeric:normal;font-variant-position:normal;font-variation-settings:normal;inline-size:0;isolation:auto;mix-blend-mode:normal;shape-margin:0;shape-padding:0;text-decoration-color:#000000;text-decoration-line:none;text-decoration-style:solid;text-indent:0;text-orientation:mixed;text-transform:none;white-space:normal"/>
   <path d="m14.408 35.727c-6.1215-0.21452-9.4132 1.0793-11.191 2.5156-0.88911 0.71815-1.3894 1.4663-1.666 2.0352-0.13831 0.28442-0.22133 0.52598-0.27148 0.6875-0.019104 0.061518-0.028346 0.094939-0.037109 0.125a0.6088 0.6088 0 0 0 0.15039 0.73047c3.439e-4 2.94e-4 0.19691 0.11316 0.19727 0.11328 3.557e-4 1.23e-4 0.27502 0.029342 0.27539 0.029297 3.689e-4 -4.6e-5 0.22227-0.072053 0.22266-0.072266s0.12265-0.091418 0.12305-0.091797c7.985e-4 -7.57e-4 0.084989-0.096862 0.10352-0.12695 0.018527-0.030091 0.027102-0.050955 0.035156-0.068359 0.032217-0.069619 0.036866-0.090921 0.044922-0.11719 0.016113-0.052533 0.027567-0.09798 0.046875-0.16016 0.038617-0.12435 0.10006-0.29967 0.20508-0.51562 0.21004-0.43191 0.59343-1.0214 1.3359-1.6211 1.485-1.1995 4.4474-2.4541 10.383-2.2461 5.4217 0.19 8.4491 1.4216 10.107 2.5508 0.82916 0.5646 1.3203 1.1039 1.6016 1.4902 0.28124 0.38634 0.33594 0.57031 0.33594 0.57031a0.6088 0.6088 0 0 0 0.77344 0.37891 0.6088 0.6088 0 0 0 0.37891-0.77344s-0.14347-0.39745-0.50391-0.89258c-0.36044-0.49513-0.95631-1.1384-1.9004-1.7812-1.8882-1.2857-5.1597-2.5639-10.75-2.7598z" color="#000000" color-rendering="auto" dominant-baseline="auto" image-rendering="auto" solid-color="#000000" stop-color="#000000" style="font-feature-settings:normal;font-variant-alternates:normal;font-variant-caps:normal;font-variant-east-asian:normal;font-variant-ligatures:normal;font-variant-numeric:normal;font-variant-position:normal;font-variation-settings:normal;inline-size:0;isolation:auto;mix-blend-mode:normal;shape-margin:0;shape-padding:0;text-decoration-color:#000000;text-decoration-line:none;text-decoration-style:solid;text-indent:0;text-orientation:mixed;text-transform:none;white-space:normal"/>
   <path transform="scale(.26458)" d="m46.92 108.55c-1.274 0.0413-2.2659 1.101-2.2246 2.375l0.74609 23.016c0.01262 0.38917 0.12894 0.74537 0.30859 1.0606-3.3855 0.10334-6.4898 0.3485-9.3438 0.70507l-3.1523-22.754c-0.17499-1.2626-1.3331-2.1398-2.5957-1.9648-1.2626 0.175-2.1379 1.3331-1.9629 2.5957l3.1602 22.811c6.66e-4 5e-3 0.0032 9e-3 0.0039 0.0137-2.9515 0.54683-5.5874 1.2244-7.9395 2.002-0.0055-0.0136-0.0079-0.0274-0.01367-0.041l-9.0234-21.186c-0.49955-1.1727-1.8468-1.7144-3.0195-1.2148-1.1727 0.49956-1.7144 1.8468-1.2148 3.0195l8.9766 21.076c-3.0492 1.3618-5.5101 2.8922-7.4668 4.4726-0.04594 0.0371-0.08546 0.0742-0.13086 0.11133l-13.629-15.822c-0.83193-0.96576-2.2784-1.0722-3.2441-0.24023-0.96576 0.83194-1.0741 2.2784-0.24219 3.2441l13.822 16.045c-1.3337 1.5779-2.2562 3.085-2.873 4.3535-0.52276 1.075-0.83582 1.9872-1.0254 2.5976-0.072205 0.23252-0.1075 0.35904-0.14062 0.47266-0.46282 0.94243-0.22899 2.0786 0.56836 2.7617 0.0013 1e-3 0.74475 0.42727 0.74609 0.42773 0.00134 4.7e-4 1.0377 0.1115 1.0391 0.11133 0.00139-1.7e-4 0.84035-0.27263 0.8418-0.27344 0.00145-8e-4 0.46333-0.34622 0.46484-0.34765 0.00302-3e-3 0.32256-0.36674 0.39258-0.48047 0.070023-0.11373 0.10237-0.19203 0.13281-0.25781 0.12177-0.26313 0.13947-0.34408 0.16992-0.44336 0.060898-0.19855 0.1028-0.37047 0.17578-0.60547 0.14595-0.47 0.37847-1.1311 0.77539-1.9473 0.79384-1.6324 2.2425-3.8602 5.0488-6.127 5.6127-4.5335 16.811-9.2764 39.244-8.4902 20.492 0.7181 31.933 5.3728 38.201 9.6406 3.1339 2.1339 4.9898 4.1726 6.0527 5.6328 1.063 1.4602 1.2695 2.1562 1.2695 2.1562 0.41161 1.2031 1.7211 1.8443 2.9238 1.4316 1.2031-0.41161 1.8443-1.7211 1.4316-2.9238 0 0-0.54201-1.5017-1.9043-3.373-0.60315-0.82854-1.3938-1.7702-2.3828-2.7695l13.154-16.545c0.79325-0.99778 0.62863-2.4411-0.36914-3.2344-0.99778-0.79325-2.4392-0.62864-3.2324 0.36914l-13.031 16.393c-0.41988-0.31431-0.85894-0.62982-1.3223-0.94531-1.5992-1.0889-3.4766-2.1745-5.6406-3.2148l8.668-21.205c0.48225-1.1799-0.07983-2.5197-1.2598-3.002-1.1799-0.48225-2.5177 0.0798-3 1.2598l-8.6367 21.137c-2.3252-0.88513-4.9106-1.7122-7.8125-2.4375 0.11035-0.19106 0.20252-0.39477 0.25586-0.6211l5.2832-22.414c0.2924-1.2407-0.47025-2.4752-1.7109-2.7676-1.2407-0.2924-2.4752 0.4722-2.7676 1.7129l-5.2832 22.412c-0.05918 0.2511-0.06354 0.49938-0.04102 0.74219-2.9525-0.5804-6.1783-1.0601-9.6992-1.418 0.20513-0.30518 0.34751-0.65789 0.38672-1.0508l2.2871-22.914c0.12659-1.2684-0.79216-2.391-2.0605-2.5176-1.2684-0.12659-2.391 0.79217-2.5176 2.0606l-2.2871 22.914c-0.04152 0.41603 0.03835 0.8113 0.19727 1.166-1.6132-0.1131-3.2617-0.21286-4.9902-0.27343-1.6203-0.0568-3.1763-0.0794-4.6934-0.082 0.18349-0.34407 0.29094-0.73505 0.27734-1.1543l-0.74609-23.016c-0.04131-1.274-1.101-2.2659-2.375-2.2246z" color="#000000" color-rendering="auto" dominant-baseline="auto" image-rendering="auto" solid-color="#000000" stop-color="#000000" style="font-feature-settings:normal;font-variant-alternates:normal;font-variant-caps:normal;font-variant-east-asian:normal;font-variant-ligatures:normal;font-variant-numeric:normal;font-variant-position:normal;font-variation-settings:normal;inline-size:0;isolation:auto;mix-blend-mode:normal;shape-margin:0;shape-padding:0;text-decoration-color:#000000;text-decoration-line:none;text-decoration-style:solid;text-indent:0;text-orientation:mixed;text-transform:none;white-space:normal"/>
  </g>
  <path d="m65.945 41.357c0 3.5058-5.6407 5.8989-12.599 5.8989-6.9582 0-12.599-4.1862-12.599-5.8989s5.6407-5.0227 12.599-5.0227c6.9582 0 12.599 1.517 12.599 5.0227z" color="#000000" color-rendering="auto" dominant-baseline="auto" fill="#fff" image-rendering="auto" solid-color="#000000" stop-color="#000000" style="font-feature-settings:normal;font-variant-alternates:normal;font-variant-caps:normal;font-variant-east-asian:normal;font-variant-ligatures:normal;font-variant-numeric:normal;font-variant-position:normal;font-variation-settings:normal;inline-size:0;isolation:auto;mix-blend-mode:normal;shape-margin:0;shape-padding:0;text-decoration-color:#000000;text-decoration-line:none;text-decoration-style:solid;text-indent:0;text-orientation:mixed;text-transform:none;white-space:normal"/>
  <g>
   <path transform="matrix(-.99506 .099308 .099308 .99506 0 0)" d="m-47.666 33.783c0.33726 0 0.60877 0.27151 0.60877 0.60877v6.0926c0 0.33726-0.27151 0.60877-0.60877 0.60877-0.33726 0-0.60877-0.27151-0.60877-0.60877v-6.0926c0-0.33726 0.27151-0.60877 0.60877-0.60877z" color="#000000" color-rendering="auto" dominant-baseline="auto" image-rendering="auto" solid-color="#000000" stop-color="#000000" style="font-feature-settings:normal;font-variant-alternates:normal;font-variant-caps:normal;font-variant-east-asian:normal;font-variant-ligatures:normal;font-variant-numeric:normal;font-variant-position:normal;font-variation-settings:normal;inline-size:0;isolation:auto;mix-blend-mode:normal;shape-margin:0;shape-padding:0;text-decoration-color:#000000;text-decoration-line:none;text-decoration-style:solid;text-indent:0;text-orientation:mixed;text-transform:none;white-space:normal"/>
   <path transform="matrix(-.99053 -.13729 -.13729 .99053 0 0)" d="m-63.088 20.903c0.33726 0 0.60877 0.27151 0.60877 0.60877v6.0926c0 0.33726-0.27151 0.60877-0.60877 0.60877s-0.60877-0.27151-0.60877-0.60877v-6.0926c0-0.33726 0.27151-0.60877 0.60877-0.60877z" color="#000000" color-rendering="auto" dominant-baseline="auto" image-rendering="auto" solid-color="#000000" stop-color="#000000" style="font-feature-settings:normal;font-variant-alternates:normal;font-variant-caps:normal;font-variant-east-asian:normal;font-variant-ligatures:normal;font-variant-numeric:normal;font-variant-position:normal;font-variation-settings:normal;inline-size:0;isolation:auto;mix-blend-mode:normal;shape-margin:0;shape-padding:0;text-decoration-color:#000000;text-decoration-line:none;text-decoration-style:solid;text-indent:0;text-orientation:mixed;text-transform:none;white-space:normal"/>
   <path transform="matrix(-.99947 -.032407 -.032407 .99947 0 0)" d="m-56.221 26.913c0.33726 0 0.60877 0.27151 0.60877 0.60877v6.0926c0 0.33726-0.27151 0.60877-0.60877 0.60877-0.33726 0-0.60877-0.27151-0.60877-0.60877v-6.0926c0-0.33726 0.27151-0.60877 0.60877-0.60877z" color="#000000" color-rendering="auto" dominant-baseline="auto" image-rendering="auto" solid-color="#000000" stop-color="#000000" style="font-feature-settings:normal;font-variant-alternates:normal;font-variant-caps:normal;font-variant-east-asian:normal;font-variant-ligatures:normal;font-variant-numeric:normal;font-variant-position:normal;font-variation-settings:normal;inline-size:0;isolation:auto;mix-blend-mode:normal;shape-margin:0;shape-padding:0;text-decoration-color:#000000;text-decoration-line:none;text-decoration-style:solid;text-indent:0;text-orientation:mixed;text-transform:none;white-space:normal"/>
   <path transform="matrix(-.97333 .22939 .22939 .97333 0 0)" d="m-38.198 39.501c0.33726 0 0.60877 0.27151 0.60877 0.60877v6.0926c0 0.33726-0.27151 0.60877-0.60877 0.60877s-0.60877-0.27151-0.60877-0.60877v-6.0926c0-0.33726 0.27151-0.60877 0.60877-0.60877z" color="#000000" color-rendering="auto" dominant-baseline="auto" image-rendering="auto" solid-color="#000000" stop-color="#000000" style="font-feature-settings:normal;font-variant-alternates:normal;font-variant-caps:normal;font-variant-east-asian:normal;font-variant-ligatures:normal;font-variant-numeric:normal;font-variant-position:normal;font-variation-settings:normal;inline-size:0;isolation:auto;mix-blend-mode:normal;shape-margin:0;shape-padding:0;text-decoration-color:#000000;text-decoration-line:none;text-decoration-style:solid;text-indent:0;text-orientation:mixed;text-transform:none;white-space:normal"/>
   <path transform="matrix(-.92567 .37833 .37833 .92567 0 0)" d="m-27.162 44.84c0.33726 0 0.60877 0.27151 0.60877 0.60877v6.0926c0 0.33726-0.27151 0.60877-0.60877 0.60877-0.33726 0-0.60877-0.27151-0.60877-0.60877v-6.0926c0-0.33726 0.27151-0.60877 0.60877-0.60877z" color="#000000" color-rendering="auto" dominant-baseline="auto" image-rendering="auto" solid-color="#000000" stop-color="#000000" style="font-feature-settings:normal;font-variant-alternates:normal;font-variant-caps:normal;font-variant-east-asian:normal;font-variant-ligatures:normal;font-variant-numeric:normal;font-variant-position:normal;font-variation-settings:normal;inline-size:0;isolation:auto;mix-blend-mode:normal;shape-margin:0;shape-padding:0;text-decoration-color:#000000;text-decoration-line:none;text-decoration-style:solid;text-indent:0;text-orientation:mixed;text-transform:none;white-space:normal"/>
   <path transform="matrix(-.78277 .62232 .62232 .78277 0 0)" d="m-8.3376 50.45c0.33726 0 0.60877 0.27151 0.60877 0.60877v6.0926c0 0.33726-0.27151 0.60877-0.60877 0.60877s-0.60877-0.27151-0.60877-0.60877v-6.0926c0-0.33726 0.27151-0.60877 0.60877-0.60877z" color="#000000" color-rendering="auto" dominant-baseline="auto" image-rendering="auto" solid-color="#000000" stop-color="#000000" style="font-feature-settings:normal;font-variant-alternates:normal;font-variant-caps:normal;font-variant-east-asian:normal;font-variant-ligatures:normal;font-variant-numeric:normal;font-variant-position:normal;font-variation-settings:normal;inline-size:0;isolation:auto;mix-blend-mode:normal;shape-margin:0;shape-padding:0;text-decoration-color:#000000;text-decoration-line:none;text-decoration-style:solid;text-indent:0;text-orientation:mixed;text-transform:none;white-space:normal"/>
   <path transform="matrix(-.92001 -.3919 -.3919 .92001 0 0)" d="m-71.452 2.9146c0.33726 0 0.60877 0.27151 0.60877 0.60877v6.0926c0 0.33726-0.27151 0.60877-0.60877 0.60877-0.33726 0-0.60877-0.27151-0.60877-0.60877v-6.0926c0-0.33726 0.27151-0.60877 0.60877-0.60877z" color="#000000" color-rendering="auto" dominant-baseline="auto" image-rendering="auto" solid-color="#000000" stop-color="#000000" style="font-feature-settings:normal;font-variant-alternates:normal;font-variant-caps:normal;font-variant-east-asian:normal;font-variant-ligatures:normal;font-variant-numeric:normal;font-variant-position:normal;font-variation-settings:normal;inline-size:0;isolation:auto;mix-blend-mode:normal;shape-margin:0;shape-padding:0;text-decoration-color:#000000;text-decoration-line:none;text-decoration-style:solid;text-indent:0;text-orientation:mixed;text-transform:none;white-space:normal"/>
   <path transform="matrix(-.75765 -.65266 -.65266 .75765 0 0)" d="m-74.494-19.267c0.33726 0 0.60877 0.27151 0.60877 0.60877v6.0926c0 0.33726-0.27151 0.60877-0.60877 0.60877s-0.60877-0.27151-0.60877-0.60877v-6.0926c0-0.33726 0.27151-0.60877 0.60877-0.60877z" color="#000000" color-rendering="auto" dominant-baseline="auto" image-rendering="auto" solid-color="#000000" stop-color="#000000" style="font-feature-settings:normal;font-variant-alternates:normal;font-variant-caps:normal;font-variant-east-asian:normal;font-variant-ligatures:normal;font-variant-numeric:normal;font-variant-position:normal;font-variation-settings:normal;inline-size:0;isolation:auto;mix-blend-mode:normal;shape-margin:0;shape-padding:0;text-decoration-color:#000000;text-decoration-line:none;text-decoration-style:solid;text-indent:0;text-orientation:mixed;text-transform:none;white-space:normal"/>
   <path d="m53.342 36.33c-1.7229 0-3.3644 0.2035-4.8602 0.53485-1.0163 1.1007-1.5807 2.5439-1.5808 4.0421-1.3e-4 3.2908 2.6675 5.9586 5.9583 5.9588 3.291 1.28e-4 5.9589-2.6678 5.9588-5.9588-2.44e-4 -1.691-0.719-3.3023-1.9771-4.4323-1.112-0.0951-2.2835-0.14469-3.499-0.14469z" color="#000000" color-rendering="auto" dominant-baseline="auto" image-rendering="auto" solid-color="#000000" stop-color="#000000" style="font-feature-settings:normal;font-variant-alternates:normal;font-variant-caps:normal;font-variant-east-asian:normal;font-variant-ligatures:normal;font-variant-numeric:normal;font-variant-position:normal;font-variation-settings:normal;inline-size:0;isolation:auto;mix-blend-mode:normal;shape-margin:0;shape-padding:0;text-decoration-color:#000000;text-decoration-line:none;text-decoration-style:solid;text-indent:0;text-orientation:mixed;text-transform:none;white-space:normal"/>
   <path d="m53.324 35.727c-5.5903 0.1959-8.8618 1.4741-10.75 2.7598-0.94408 0.64285-1.54 1.2861-1.9004 1.7812-0.36044 0.49513-0.50391 0.89258-0.50391 0.89258a0.6088 0.6088 0 0 0 0.37891 0.77344 0.6088 0.6088 0 0 0 0.77344-0.37891s0.054697-0.18398 0.33594-0.57031c0.28124-0.38634 0.7724-0.92564 1.6016-1.4902 1.6583-1.1292 4.6857-2.3608 10.107-2.5508 5.9354-0.208 8.8998 1.0466 10.385 2.2461 0.74251 0.59974 1.1259 1.1892 1.3359 1.6211 0.10502 0.21595 0.16451 0.39127 0.20312 0.51562 0.019308 0.062176 0.032715 0.10762 0.048828 0.16016 0.008056 0.026267 0.010751 0.047569 0.042968 0.11719 0.008055 0.017404 0.018583 0.038268 0.03711 0.068359s0.10076 0.1262 0.10156 0.12695c4e-4 3.79e-4 0.12462 0.091584 0.125 0.091797 3.84e-4 2.13e-4 0.22034 0.07222 0.2207 0.072266 3.68e-4 4.5e-5 0.27503-0.029174 0.27539-0.029297s0.19692-0.11299 0.19727-0.11328a0.6088 0.6088 0 0 0 0.15234-0.72656c-0.008641-0.029604-0.019394-0.065569-0.039063-0.12891-0.050158-0.16152-0.13317-0.40308-0.27148-0.6875-0.27663-0.56884-0.7769-1.317-1.666-2.0352-1.7782-1.4363-5.0699-2.7301-11.191-2.5156z" color="#000000" color-rendering="auto" dominant-baseline="auto" image-rendering="auto" solid-color="#000000" stop-color="#000000" style="font-feature-settings:normal;font-variant-alternates:normal;font-variant-caps:normal;font-variant-east-asian:normal;font-variant-ligatures:normal;font-variant-numeric:normal;font-variant-position:normal;font-variation-settings:normal;inline-size:0;isolation:auto;mix-blend-mode:normal;shape-margin:0;shape-padding:0;text-decoration-color:#000000;text-decoration-line:none;text-decoration-style:solid;text-indent:0;text-orientation:mixed;text-transform:none;white-space:normal"/>
   <path d="m55.319 28.721c0.33708 0.01093 0.59952 0.2913 0.58859 0.62838l-0.1974 6.0895c-0.0033 0.10297-0.03411 0.19721-0.08165 0.2806 0.89575 0.02734 1.7171 0.09221 2.4722 0.18655l0.83405-6.0203c0.0463-0.33406 0.35271-0.56616 0.68678-0.51986 0.33406 0.0463 0.56565 0.35271 0.51935 0.68678l-0.83612 6.0353c-1.76e-4 0.0013-8.49e-4 0.0023-1e-3 0.0036 0.78092 0.14468 1.4783 0.32396 2.1006 0.52968 0.0015-0.0036 0.0021-0.0073 0.0036-0.01085l2.3874-5.6053c0.13217-0.31028 0.48864-0.4536 0.79891-0.32143 0.31028 0.13217 0.4536 0.48864 0.32142 0.79891l-2.375 5.5764c0.80676 0.3603 1.4579 0.76522 1.9756 1.1834 0.01216 0.0098 0.02261 0.01963 0.03462 0.02946l3.606-4.1863c0.22012-0.25552 0.60282-0.28367 0.85834-0.06356 0.25552 0.22012 0.28419 0.60282 0.06408 0.85834l-3.6571 4.2452c0.35287 0.41749 0.59694 0.81623 0.76016 1.1519 0.13831 0.28442 0.22114 0.52577 0.2713 0.68729 0.0191 0.06152 0.02844 0.095 0.03721 0.12506 0.12245 0.24935 0.06059 0.54997-0.15038 0.7307-3.44e-4 2.93e-4 -0.19705 0.11305-0.1974 0.11317-3.56e-4 1.25e-4 -0.27455 0.0295-0.27492 0.02946-3.69e-4 -4.5e-5 -0.22234-0.07213-0.22272-0.07235-3.83e-4 -2.12e-4 -0.12259-0.0916-0.12299-0.09198-7.99e-4 -7.57e-4 -0.08534-0.09703-0.10387-0.12712-0.01853-0.03009-0.02709-0.05081-0.03514-0.06821-0.03222-0.06962-0.0369-0.09104-0.04496-0.1173-0.01611-0.05253-0.0272-0.09802-0.04651-0.1602-0.03862-0.12435-0.10014-0.29926-0.20515-0.51521-0.21004-0.4319-0.59332-1.0213-1.3358-1.6211-1.485-1.1995-4.4478-2.4544-10.383-2.2464-5.4217 0.19-8.449 1.4215-10.107 2.5507-0.82916 0.5646-1.3202 1.104-1.6014 1.4903-0.28124 0.38634-0.3359 0.5705-0.3359 0.5705-0.1089 0.31832-0.45536 0.48797-0.77359 0.37879-0.31832-0.1089-0.48796-0.45536-0.37879-0.77359 0 0 0.14341-0.39732 0.50384-0.89245 0.15958-0.21922 0.36878-0.46837 0.63045-0.73277l-3.4804-4.3775c-0.20988-0.26399-0.16632-0.64588 0.09767-0.85576 0.264-0.20988 0.64536-0.16633 0.85524 0.09767l3.4478 4.3372c0.11109-0.08316 0.22726-0.16664 0.34985-0.25011 0.42311-0.28811 0.91983-0.57533 1.4924-0.85059l-2.2934-5.6105c-0.1276-0.31219 0.02112-0.66667 0.33331-0.79426 0.31219-0.1276 0.66615 0.02112 0.79375 0.33331l2.2851 5.5924c0.61521-0.23419 1.2993-0.45303 2.067-0.64492-0.0292-0.05055-0.05358-0.10445-0.0677-0.16433l-1.3978-5.9304c-0.07737-0.32826 0.12442-0.65489 0.45268-0.73225 0.32826-0.07736 0.65489 0.12494 0.73225 0.4532l1.3978 5.9298c0.01566 0.06644 0.01681 0.13213 0.01085 0.19637 0.78118-0.15356 1.6347-0.28048 2.5662-0.37517-0.05427-0.08075-0.09194-0.17407-0.10232-0.27802l-0.60513-6.0626c-0.03349-0.33559 0.20959-0.63261 0.54518-0.66611 0.33559-0.03349 0.63261 0.20959 0.66611 0.54518l0.60513 6.0626c0.01098 0.11007-0.01015 0.21466-0.05219 0.3085 0.42682-0.02992 0.86298-0.05632 1.3203-0.07234 0.4287-0.01502 0.84038-0.02101 1.2418-0.0217-0.04855-0.09104-0.07698-0.19448-0.07338-0.30541l0.1974-6.0895c0.01093-0.33708 0.2913-0.59952 0.62838-0.58859z" color="#000000" color-rendering="auto" dominant-baseline="auto" image-rendering="auto" solid-color="#000000" stop-color="#000000" style="font-feature-settings:normal;font-variant-alternates:normal;font-variant-caps:normal;font-variant-east-asian:normal;font-variant-ligatures:normal;font-variant-numeric:normal;font-variant-position:normal;font-variation-settings:normal;inline-size:0;isolation:auto;mix-blend-mode:normal;shape-margin:0;shape-padding:0;text-decoration-color:#000000;text-decoration-line:none;text-decoration-style:solid;text-indent:0;text-orientation:mixed;text-transform:none;white-space:normal"/>
  </g>
 </g>
</svg>
