<svg width="256" height="256" version="1.1" viewBox="0 0 67.733 67.733" xmlns="http://www.w3.org/2000/svg">
 <g stroke-width="0">
  <path d="m1.7883 41.357c0 3.5058 5.6407 5.8989 12.599 5.8989 6.9582 0 12.599-4.1862 12.599-5.8989s-5.6407-5.0227-12.599-5.0227c-6.9582 0-12.599 1.517-12.599 5.0227z" fill="#fff"/>
  <path d="m14.387 36.334c-0.22303 0-0.44024 0.0057-0.66042 0.0088-0.52464 0.5658-0.86247 1.6049-0.86247 3.3677 0 3.055 1.3106 7.1189 2.2593 7.1189s2.2593-4.0639 2.2593-7.1189c0-1.6599-0.30022-2.6769-0.77307-3.2628-0.72186-0.07236-1.4638-0.11369-2.2226-0.11369z"/>
  <path d="m65.945 41.357c0 3.5058-5.6407 5.8989-12.599 5.8989s-12.599-4.1862-12.599-5.8989 5.6407-5.0227 12.599-5.0227 12.599 1.517 12.599 5.0227z" fill="#fff"/>
  <path d="m53.346 36.334c0.22303 0 0.44024 0.0057 0.66042 0.0088 0.52464 0.5658 0.86247 1.6049 0.86247 3.3677 0 3.055-1.3106 7.1189-2.2593 7.1189s-2.2593-4.0639-2.2593-7.1189c0-1.6599 0.30022-2.6769 0.77307-3.2628 0.72186-0.07236 1.4638-0.11369 2.2226-0.11369z"/>
 </g>
</svg>
