<svg width="43.935mm" height="13.216mm" version="1.1" viewBox="0 0 43.935 13.216" xmlns="http://www.w3.org/2000/svg">
 <g transform="translate(79.946 -7.4314)" fill="#fff" aria-label="PicGo!">
  <path transform="scale(.26458)" d="m-261.36 28.109c-0.38263-0.03174-0.78434-0.02911-1.2031 0.0059-1.7798 0.14863-3.2688 0.834-4.4668 2.0586-1.1631 1.2217-1.675 2.6706-1.5352 4.3457 0.0904 1.0819 0.47257 2.0702 1.1445 2.9629 0.70687 0.88981 1.5541 1.573 2.543 2.0527 1.0209 0.44188 2.0387 0.62162 3.0508 0.53711 1.6752-0.13989 3.0214-0.85104 4.0391-2.1309 1.0148-1.3147 1.4435-2.8965 1.2891-4.7461-0.13989-1.6751-0.77477-2.9738-1.9062-3.8984-0.82244-0.69566-1.8072-1.0923-2.9551-1.1875zm57.379 0.37305c-1.0844 0.02439-2.1808 0.12718-3.2891 0.30859-3.063 0.58608-5.8107 1.8299-8.2422 3.7285-2.4315 1.8987-4.3489 4.23-5.752 6.9961-1.368 2.767-2.0898 5.6572-2.168 8.668-0.0355 1.3653 0.0534 2.6451 0.26757 3.8418 0.58517 3.098 1.8258 5.8989 3.7227 8.4004 1.5213 1.9706 3.3057 3.6055 5.3438 4.916-1.3557-0.01064-2.6656-0.03516-4.0566-0.03516-3.9047 0-7.6467 0.05756-11.312 0.13672 0.89706-0.76585 1.6841-1.6146 2.3418-2.5625 1.2593-1.8031 1.8509-3.6672 1.7734-5.5918l-8.748-0.48828c-0.31754 0.8189-0.88444 1.5077-1.7031 2.0664-0.7837 0.55726-1.6312 0.85401-2.541 0.89062-0.9098 0.03661-1.8131-0.19001-2.709-0.67969-0.86092-0.49109-1.5702-1.1462-2.1289-1.9648-0.55868-0.81869-0.85543-1.6662-0.89063-2.541-0.0535-1.3297 0.44241-2.5236 1.4863-3.582 1.0775-1.0948 2.3152-1.6702 3.7148-1.7266 1.0148-0.04083 1.9374 0.23651 2.7676 0.83398 0.86375 0.56107 1.4743 1.3436 1.8301 2.3457l8.7852-1.1426c-0.0831-2.0645-0.8428-3.9617-2.2793-5.6914-1.4365-1.7297-3.2767-3.0741-5.5234-4.0352-2.2117-0.96246-4.456-1.3982-6.7305-1.3066-2.5544 0.10278-4.8732 0.82628-6.957 2.1719-2.0488 1.3442-3.6596 3.1275-4.832 5.3477-1.1388 2.1838-1.6569 4.5707-1.5527 7.1602 0.1042 2.5894 0.85011 4.9944 2.2363 7.2168 0.98905 1.5623 2.2054 2.887 3.6406 3.9844-2.3578 0.13514-4.6432 0.28101-6.8555 0.43945l-2.084-24.965-10.941 0.91406 2.8359 24.883c-8.8383 0.83033-16.05 1.7723-21.521 2.5996l-1.2578-7.4727c1.1688 0.0099 2.2222-0.05378 3.1582-0.1875 2.9468-0.42094 5.5568-1.4658 7.8301-3.1348 2.3079-1.674 4.0118-3.7388 5.1113-6.1953s1.4575-5.02 1.0762-7.6895c-0.40113-2.8081-1.576-5.2215-3.5273-7.2422-1.9166-2.0256-4.3016-3.4892-7.1543-4.3906s-5.8046-1.135-8.8555-0.69922c-3.9522 0.56455-8.1151 2.3797-12.488 5.4453l5.7461 33.338c-0.9909 0.19627-1.5371 0.31445-1.5371 0.31445a3 3 0 0 0-2.2812 3.5801 3 3 0 0 0 3.5801 2.2754s29.949-6.6602 78.498-6.6602 74.764 6.6445 74.764 6.6445a3 3 0 0 0 3.6484-2.1777 3 3 0 0 0-2.1777-3.6387s-0.49446-0.12172-1.3906-0.32031c0.76637-0.90376 1.274-1.9938 1.5117-3.2773 0.31253-1.6873 0.0419-3.1082-0.8125-4.2637-0.84807-1.1899-2.1337-1.9448-3.8555-2.2637-1.8595-0.34442-3.493-0.07594-4.9023 0.80274-1.3685 0.85062-2.209 2.1193-2.5215 3.8066-0.2041 1.1019-0.12041 2.1857 0.25195 3.252 3e-3 8e-3 7e-3 0.01543 0.01 0.02344-2.2253-0.35801-4.7496-0.73472-7.5879-1.1133 1.5881-0.97035 2.9453-2.217 4.0644-3.748 1.5315-2.1249 2.4447-4.5637 2.7402-7.3145 0.29927-2.7856-0.0487-5.2877-1.043-7.5078-0.99424-2.2201-2.5455-4.0077-4.6543-5.3613-2.105-1.3885-4.6559-2.2427-7.6504-2.5645-2.2981-0.2469-4.6364 0.04655-7.0156 0.88281-2.3444 0.84-4.3779 2.226-6.0996 4.1543-1.6869 1.9321-2.6835 4.3244-2.9902 7.1797-0.27683 2.5767 0.10505 5.083 1.1465 7.5195 0.82934 1.8472 1.9691 3.4552 3.4102 4.8281-4.4428-0.36716-9.267-0.68804-14.453-0.94336 0.41024-0.26186 0.81492-0.53589 1.209-0.83594 2.181-1.695 3.8984-3.7522 5.1524-6.1719 1.2889-2.4188 1.9668-4.9073 2.0332-7.4629 0.0518-1.9955-0.25076-3.8247-0.9082-5.4883l-17.291-3.916-2.3984 9.3438 9.3008 2.0273c-0.26778 0.86885-0.97092 1.6395-2.1094 2.3105-1.1034 0.672-2.2348 1.115-3.3965 1.3301-0.52785 0.09152-1.0372 0.13199-1.5273 0.11914-2.0305-0.05272-3.8322-0.80198-5.4062-2.2441-1.5731-1.4772-2.576-3.307-3.0098-5.4902-0.0897-0.59787-0.12789-1.1762-0.11328-1.7363 0.0536-2.0655 0.71545-3.9217 1.9844-5.5703 1.3048-1.6827 2.926-2.7277 4.8633-3.1328 0.80974-0.15405 1.599-0.22108 2.3691-0.20117 1.2953 0.03363 2.5493 0.2766 3.7637 0.72852 1.2503 0.41782 2.2509 1.0046 3.002 1.7598l5.791-8.4688c-1.4017-1.3326-3.232-2.3597-5.4902-3.084-2.2224-0.75835-4.5414-1.1697-6.957-1.2324-0.35884-0.0093-0.7186-0.01008-1.0801-2e-3zm56.561 4.9238-3.9102 26.309 10.252 1.4707 4.9707-25.684zm-138.98 8.3184c1.2007 0.04737 2.3301 0.43192 3.3887 1.1562 1.4065 0.93111 2.23 2.2466 2.4727 3.9453 0.13866 0.97072-0.0437 1.9167-0.54883 2.8379-0.50518 0.92118-1.2441 1.6981-2.2148 2.332-0.93605 0.62898-1.957 1.0232-3.0664 1.1816-0.83204 0.11885-1.6698 0.07898-2.5117-0.11914l-1.6484-10.059c0.89643-0.65869 1.8642-1.0624 2.9043-1.2109 0.41602-0.05943 0.82438-0.08024 1.2246-0.06445zm117.27 9.3613c0.18946 0.0038 0.38226 0.01607 0.57812 0.03711 1.7758 0.19079 3.0583 0.8741 3.8477 2.0508s1.1 2.5483 0.93164 4.1152c-0.17582 1.6365-0.80099 2.8736-1.877 3.709-1.0412 0.83914-2.2934 1.1786-3.7559 1.0215-1.6714-0.17957-2.992-0.83128-3.9629-1.957-0.96719-1.1606-1.3676-2.5249-1.1992-4.0918 0.1646-1.5321 0.80768-2.7651 1.9297-3.7012 1.0122-0.81582 2.1816-1.2105 3.5078-1.1836z" fill="#fff" stroke-width=".54719"/>
 </g>
</svg>
