<svg width="256" height="256" version="1.1" viewBox="0 0 67.733 67.733" xmlns="http://www.w3.org/2000/svg">
 <path d="m33.898 50.295c-1.6043-0.004488-2.7839 0.29858-3.5723 0.62109-0.78841 0.32251-1.2422 0.71289-1.2422 0.71289a0.79374 0.79374 0 0 0-0.0625 1.1211 0.79374 0.79374 0 0 0 1.1211 0.0625s0.18368-0.18169 0.78516-0.42773c0.60148-0.24605 1.564-0.50783 2.9668-0.50391 1.4049 0.003925 2.3527 0.26704 2.9375 0.50977s0.74805 0.41211 0.74805 0.41211a0.79374 0.79374 0 0 0 1.123-0.042968 0.79374 0.79374 0 0 0-0.044922-1.1211s-0.44389-0.39322-1.2188-0.71484c-0.77486-0.32162-1.9388-0.62443-3.541-0.62891z" color="#000000" color-rendering="auto" dominant-baseline="auto" image-rendering="auto" shape-rendering="auto" solid-color="#000000" stop-color="#000000" style="font-feature-settings:normal;font-variant-alternates:normal;font-variant-caps:normal;font-variant-east-asian:normal;font-variant-ligatures:normal;font-variant-numeric:normal;font-variant-position:normal;font-variation-settings:normal;inline-size:0;isolation:auto;mix-blend-mode:normal;shape-margin:0;shape-padding:0;text-decoration-color:#000000;text-decoration-line:none;text-decoration-style:solid;text-indent:0;text-orientation:mixed;text-transform:none;white-space:normal"/>
</svg>
