<svg width="256" height="256" version="1.1" viewBox="0 0 67.733 67.733" xmlns="http://www.w3.org/2000/svg">
 <g>
  <path d="m29.78 51.813 3.0085 0.70191-1.6846 2.7497z" fill="#fff"/>
  <path d="m37.953 51.813-3.0085 0.70191 1.6846 2.7497z" fill="#fff"/>
  <path d="m29.594 50.295a0.79374 0.79374 0 0 0-0.57227 0.26367 0.79374 0.79374 0 0 0 0.0625 1.1211s0.45378 0.39038 1.2422 0.71289c0.78841 0.32251 1.968 0.62558 3.5723 0.62109 1.6022-0.0045 2.7662-0.30728 3.541-0.62891 0.77486-0.32163 1.2188-0.71484 1.2188-0.71484a0.79374 0.79374 0 0 0 0.04492-1.1211 0.79374 0.79374 0 0 0-1.123-0.04297s-0.16326 0.16938-0.74805 0.41211-1.5326 0.50584-2.9375 0.50976c-1.4028 0.0039-2.3653-0.25981-2.9668-0.50586-0.60148-0.24604-0.78516-0.42578-0.78516-0.42578a0.79374 0.79374 0 0 0-0.54883-0.20117z" color="#000000" color-rendering="auto" dominant-baseline="auto" image-rendering="auto" shape-rendering="auto" solid-color="#000000" stop-color="#000000" style="font-feature-settings:normal;font-variant-alternates:normal;font-variant-caps:normal;font-variant-east-asian:normal;font-variant-ligatures:normal;font-variant-numeric:normal;font-variant-position:normal;font-variation-settings:normal;inline-size:0;isolation:auto;mix-blend-mode:normal;shape-margin:0;shape-padding:0;text-decoration-color:#000000;text-decoration-line:none;text-decoration-style:solid;text-indent:0;text-orientation:mixed;text-transform:none;white-space:normal"/>
 </g>
</svg>
